<svg xmlns="http://www.w3.org/2000/svg" xmlns:xlink="http://www.w3.org/1999/xlink" x="0" y="0" version="1.1" viewBox="0 0 24 24" xml:space="preserve" style="enable-background:new 0 0 24 24"><style type="text/css">.st0{fill:#fff}.st1{fill:#b07dfb}.st2{stroke:#84e;stroke-linecap:round;stroke-linejoin:round;stroke-miterlimit:10}.st2,.st3{fill:none}</style><g id="Duotone"><g><polygon points="4.8 5.5 1.5 9.5 4.8 13.5 7 13.5 11.5 9.5 7 5.5" class="st0"/><polygon points="7.5 19.5 11.5 22 15.5 19.5 15.5 13.1 11.5 9.5 7.5 13.1" class="st0"/><polygon points="18.3 5.5 16 5.5 11.5 9.5 16 13.5 18.3 13.5 21.5 9.5" class="st0"/></g><rect width="8" height="3" x="7.5" y="12.5" class="st1"/><polygon points="15.5 19.5 11.5 22 7.5 19.5 7.5 18.5 15.5 18.5" class="st1"/><polygon points="14.7 6.7 11.5 3.8 11.5 3.8 8.3 6.7 11.5 9.5" class="st1"/><g><polygon points="18.3 5.5 16 13.5 18.3 13.5 21.5 9.5" class="st1"/></g><g><polygon points="7 5.5 4.5 13.5 7 13.5 11.5 9.5" class="st1"/></g><polygon points="7 5.5 11.5 9.5 7 13.5 4.8 13.5 1.5 9.5 4.8 5.5" class="st2"/><polyline points="8.3 6.7 14 1.5 15 1.5" class="st2"/><polyline points="14.7 6.7 9 1.5 8 1.5" class="st2"/><polygon points="14.7 6.7 11.5 3.8 11.5 3.8 8.3 6.7 11.5 9.5" class="st2"/><polyline points="7.5 13.1 7.5 19.5 11.5 22 15.5 19.5 15.5 13.1" class="st2"/><line x1="11.5" x2="11.5" y1="23.5" y2="22" class="st2"/><line x1="7.5" x2="15.5" y1="18.5" y2="18.5" class="st2"/><line x1="7.5" x2="15.5" y1="15.5" y2="15.5" class="st2"/><line x1="8.1" x2="14.9" y1="12.5" y2="12.5" class="st2"/><polygon points="16 5.5 11.5 9.5 16 13.5 18.3 13.5 21.5 9.5 18.3 5.5" class="st2"/></g><g id="Frames-24px"><rect width="24" height="24" class="st3"/></g></svg>