<svg xmlns="http://www.w3.org/2000/svg" xmlns:xlink="http://www.w3.org/1999/xlink" x="0" y="0" version="1.1" viewBox="0 0 24 24" xml:space="preserve" style="enable-background:new 0 0 24 24"><style type="text/css">.st0{fill:#fff}.st1{fill:#b07dfb}.st2{stroke:#84e;stroke-linecap:round;stroke-linejoin:round;stroke-miterlimit:10}.st2,.st3{fill:none}</style><g id="Duotone"><polygon points="16.5 13.5 16.5 12.5 11.5 10.5 6.5 12.5 6.5 13.5 3.5 12.5 4 14.5 6.5 15.5 6.5 16.5 8.5 18.5 8.5 21.5 11.5 23.5 14.5 21.5 14.5 18.5 16.5 16.5 16.5 15.5 19 14.5 19.5 12.5" class="st0"/><polygon points="6.5 16.5 9.5 16.5 10.5 18 10.5 20.5 11.5 21.5 12.5 20.5 12.5 18 13.5 16.5 16.5 16.5 14.5 18.5 14.5 21.5 11.5 23.5 8.5 21.5 8.5 18.5" class="st1"/><polyline points="6.5 12.5 2 8 .5 2.5" class="st2"/><polygon points="14.5 21.5 11.5 23.5 8.5 21.5 8.5 18.5 6.5 16.5 6.5 12.5 11.5 10.5 16.5 12.5 16.5 16.5 14.5 18.5" class="st2"/><line x1="9.5" x2="9.5" y1="14.5" y2="15.5" class="st2"/><line x1="13.5" x2="13.5" y1="14.5" y2="15.5" class="st2"/><line x1="11.5" x2="11.5" y1="21.5" y2="23.5" class="st2"/><polyline points="6.5 13.5 3.5 12.5 4 14.5 6.5 15.5" class="st2"/><polyline points="16.5 13.5 19.5 12.5 19 14.5 16.5 15.5" class="st2"/><polyline points="5.5 11.5 5.5 8.5 7 6.5" class="st2"/><polyline points="2 8 3.5 4.5 6.5 2.5" class="st2"/><polyline points="4.5 10.5 1 10.5 .5 9.5" class="st2"/><polyline points="16.5 12.5 21 8 22.5 2.5" class="st2"/><polyline points="17.5 11.5 17.5 8.5 16 6.5" class="st2"/><polyline points="21 8 19.5 4.5 16.5 2.5" class="st2"/><polyline points="18.5 10.5 22 10.5 22.5 9.5" class="st2"/></g><g id="Frames-24px"><rect width="24" height="24" class="st3"/></g></svg>