<svg xmlns="http://www.w3.org/2000/svg" xmlns:xlink="http://www.w3.org/1999/xlink" x="0" y="0" version="1.1" viewBox="0 0 24 24" xml:space="preserve" style="enable-background:new 0 0 24 24"><style type="text/css">.st0{fill:#fff}.st1{fill:#b07dfb}.st2{stroke:#84e;stroke-linecap:round;stroke-linejoin:round;stroke-miterlimit:10}.st2,.st3{fill:none}</style><g id="Duotone"><polygon points="8 4.5 3.5 1.5 3.5 12 1.5 19 11.5 22.5 21.5 19 19.5 12 19.5 1.5 15 4.5" class="st0"/><polygon points="1.5 19 4 17.5 11.5 20 20 17.5 21.5 19 11.5 22.5" class="st1"/><polyline points="8 4.5 9.5 8.5 11.5 4.5" class="st1"/><polyline points="11.5 4.5 13.5 8.5 15 4.5" class="st1"/><polyline points="8 4.5 9.5 8.5 11.5 4.5" class="st2"/><polyline points="11.5 4.5 13.5 8.5 15 4.5" class="st2"/><line x1="11.5" x2="11.5" y1="22.5" y2="17.5" class="st2"/><polyline points="9 15.5 11.5 17.5 14 15.5" class="st2"/><line x1="8.5" x2="8.5" y1="10.5" y2="11.5" class="st2"/><line x1="14.5" x2="14.5" y1="10.5" y2="11.5" class="st2"/><line x1="17.5" x2="22.5" y1="15.5" y2="13.5" class="st2"/><line x1="18" x2="22.5" y1="17.5" y2="16.5" class="st2"/><polygon points="8 4.5 3.5 1.5 3.5 12 1.5 19 11.5 22.5 21.5 19 19.5 12 19.5 1.5 15 4.5" class="st2"/><line x1="5.5" x2=".5" y1="15.5" y2="13.5" class="st2"/><line x1="5" x2=".5" y1="17.5" y2="16.5" class="st2"/></g><g id="Frames-24px"><rect width="24" height="24" class="st3"/></g></svg>