<svg xmlns="http://www.w3.org/2000/svg" xmlns:xlink="http://www.w3.org/1999/xlink" x="0" y="0" version="1.1" viewBox="0 0 24 24" xml:space="preserve" style="enable-background:new 0 0 24 24"><style type="text/css">.st0{fill:#fff}.st1{fill:#b07dfb}.st2{stroke:#84e;stroke-linecap:round;stroke-linejoin:round;stroke-miterlimit:10}.st2,.st3{fill:none}</style><g id="Duotone"><polygon points="13.5 7.5 14 6.5 16 6 17 8 16 9.5 17.5 14 15.5 15 15.5 18 11.5 20 7.5 18 7.5 15 5.5 14 7 9.5 6 8 7 6 9 6.5 9.5 7.5" class="st0"/><polygon points="9.5 13.5 13.5 13.5 11.5 16" class="st1"/><path d="M21.5,3.5l-4,1.5L19,0.5L12.5,2l-1,2L10,2L4,0.5L5.5,5l-4-1.5l2,4l-2,6l6,8l4,2l4-2l6-8l-2-6L21.5,3.5z M15.5,15v3l-4,2l-4-2v-3l-2-1L7,9.5L6,8l1-2l2,0.5l0.5,1h4l0.5-1L16,6l1,2l-1,1.5l1.5,4.5L15.5,15z" class="st1"/><polygon points="13.5 7.5 14 6.5 16 6 17 8 16 9.5 17.5 14 15.5 15 15.5 18 11.5 20 7.5 18 7.5 15 5.5 14 7 9.5 6 8 7 6 9 6.5 9.5 7.5" class="st2"/><polygon points="11.5 4 12.5 2 19 .5 17.5 5 21.5 3.5 19.5 7.5 21.5 13.5 15.5 21.5 11.5 23.5 7.5 21.5 1.5 13.5 3.5 7.5 1.5 3.5 5.5 5 4 .5 10 2" class="st2"/><line x1="9.5" x2="9.5" y1="10.5" y2="11.5" class="st2"/><line x1="13.5" x2="13.5" y1="10.5" y2="11.5" class="st2"/><polygon points="9.5 13.5 13.5 13.5 11.5 16" class="st2"/><line x1="11.5" x2="11.5" y1="16" y2="17.5" class="st2"/></g><g id="Frames-24px"><rect width="24" height="24" class="st3"/></g></svg>