<svg xmlns="http://www.w3.org/2000/svg" xmlns:xlink="http://www.w3.org/1999/xlink" x="0" y="0" version="1.1" viewBox="0 0 24 24" xml:space="preserve" style="enable-background:new 0 0 24 24"><style type="text/css">.st0{fill:#fff}.st1{fill:#b07dfb}.st2{stroke:#84e;stroke-linecap:round;stroke-linejoin:round;stroke-miterlimit:10}.st2,.st3{fill:none}</style><g id="Duotone"><path d="M18.5,5.5l-0.5-3h-3l-3.5-2L8,2.5H5l-0.5,3l-3,1L2,10l2.5,1l1-0.5v10l6,3l6-3v-10l1,0.5l2.5-1l0.5-4L18.5,5.5z" class="st0"/><polyline points="5.5 13.5 3.5 13.5 1.5 16.5 3.5 16.5 5.5 15.5" class="st0"/><polyline points="17.5 13.5 19.5 13.5 21.5 16.5 19.5 16.5 17.5 15.5" class="st0"/><polygon points="17.5 10.5 16.5 10 14 11 11.5 10 9 11 6.5 10 5.5 10.5 5.5 13 6.5 12.5 9 13.5 11.5 12.5 14 13.5 16.5 12.5 17.5 13" class="st1"/><polyline points="17.5 10.5 17.5 20.5 11.5 23.5 5.5 20.5 5.5 10.5" class="st2"/><polygon points="11.5 10 14 11 16.5 10 18.5 11 21 10 21.5 6 18.5 5.5 18 2.5 15 2.5 11.5 .5 8 2.5 5 2.5 4.5 5.5 1.5 6.5 2 10 4.5 11 6.5 10 9 11" class="st2"/><line x1="8.5" x2="8.5" y1="15.5" y2="14.5" class="st2"/><line x1="14.5" x2="14.5" y1="15.5" y2="14.5" class="st2"/><polyline points="5.5 13.5 3.5 13.5 1.5 16.5 3.5 16.5 5.5 15.5" class="st2"/><polyline points="17.5 13.5 19.5 13.5 21.5 16.5 19.5 16.5 17.5 15.5" class="st2"/><line x1="10.5" x2="10.5" y1="18.5" y2="19.5" class="st2"/><line x1="12.5" x2="12.5" y1="18.5" y2="19.5" class="st2"/></g><g id="Frames-24px"><rect width="24" height="24" class="st3"/></g></svg>