<svg xmlns="http://www.w3.org/2000/svg" xmlns:xlink="http://www.w3.org/1999/xlink" x="0" y="0" version="1.1" viewBox="0 0 24 24" xml:space="preserve" style="enable-background:new 0 0 24 24"><style type="text/css">.st0{fill:#fff}.st1{fill:#b07dfb}.st2{stroke:#84e;stroke-linecap:round;stroke-linejoin:round;stroke-miterlimit:10}.st2,.st3{fill:none}</style><g id="Duotone"><polygon points="23.5 .5 19.5 5.5 16 7 12 5.5 8 7 4.5 5.5 .5 .5 1.5 6.5 5.5 10.5 1.5 12 4 14.5 5.8 12.7 6.5 18.2 6.5 18.2 5.5 18.5 7 23.5 9.5 23.5 12 22 14.5 23.5 17 23.5 18.5 18.5 17.5 18.2 17.5 18.2 18.2 12.7 20 14.5 22.5 12 18.5 10.5 22.5 6.5" class="st0"/><polygon points="6.5 18.2 12 16.5 17.8 18.3 17.8 18.3 17.5 18.2 17.5 18.2 18.2 12.9 15 9 12 8 9 9 5.8 12.9 6.5 18.2" class="st1"/><polygon points="5.5 18.5 9 21.5 12 19.5 15 21.5 18.5 18.5 17 23.5 14.5 23.5 12 22 9.5 23.5 7 23.5" class="st1"/><polyline points="6.5 18.2 5.5 10.5 8 7 12 5.5 16 7 18.5 10.5 17.5 18.2" class="st2"/><polygon points="17 23.5 14.5 23.5 12 22 9.5 23.5 7 23.5 5.5 18.5 12 16.5 18.5 18.5" class="st2"/><polyline points="8 7 4.5 5.5 .5 .5 1.5 6.5 5.5 10.5 1.5 12 4 14.5 5.8 12.7" class="st2"/><polyline points="16 7 19.5 5.5 23.5 .5 22.5 6.5 18.5 10.5 22.5 12 20 14.5 18.2 12.7" class="st2"/><line x1="9.5" x2="9.5" y1="12.5" y2="11.5" class="st2"/><line x1="10.5" x2="10.5" y1="19.5" y2="20.5" class="st2"/><line x1="14.5" x2="14.5" y1="12.5" y2="11.5" class="st2"/><line x1="13.5" x2="13.5" y1="19.5" y2="20.5" class="st2"/></g><g id="Frames-24px"><rect width="24" height="24" class="st3"/></g></svg>